<svg xmlns="http://www.w3.org/2000/svg" xmlns:xlink="http://www.w3.org/1999/xlink" width="55" zoomAndPan="magnify" viewBox="0 0 41.25 41.250001" height="55" preserveAspectRatio="xMidYMid meet" version="1.0"><defs><g/><clipPath id="7e74ba6a4d"><path d="M 20 13.382812 L 25.898438 13.382812 L 25.898438 17 L 20 17 Z M 20 13.382812 " clip-rule="nonzero"/></clipPath><clipPath id="48a85e70b5"><path d="M 11.902344 13.382812 L 25.898438 13.382812 L 25.898438 20.011719 L 11.902344 20.011719 Z M 11.902344 13.382812 " clip-rule="nonzero"/></clipPath></defs><g clip-path="url(#7e74ba6a4d)"><path fill="#0a2635" d="M 24.058594 13.382812 L 24.976562 15.039062 L 25.894531 16.699219 L 22.785156 16.699219 L 21.867188 15.039062 L 20.949219 13.382812 Z M 24.058594 13.382812 " fill-opacity="1" fill-rule="evenodd"/></g><g clip-path="url(#48a85e70b5)"><path fill="#ea6001" d="M 18.671875 15.882812 L 13.472656 15.882812 L 14.046875 16.796875 C 14.335938 17.257812 14.789062 17.515625 15.316406 17.515625 L 18.671875 17.515625 L 19.140625 18.355469 L 19.152344 18.378906 L 15.039062 18.378906 L 15.613281 19.296875 C 15.902344 19.757812 16.355469 20.011719 16.882812 20.011719 L 20.058594 20.011719 L 21.894531 16.699219 L 20.976562 15.039062 L 20.058594 13.382812 L 11.910156 13.382812 L 12.484375 14.300781 C 12.773438 14.761719 13.226562 15.015625 13.753906 15.015625 L 19.152344 15.015625 L 19.140625 15.039062 Z M 24.058594 20.011719 L 25.894531 16.699219 L 22.785156 16.699219 L 20.949219 20.011719 Z M 24.058594 20.011719 " fill-opacity="1" fill-rule="evenodd"/></g><g fill="#0a2635" fill-opacity="1"><g transform="translate(5.036186, 24.793515)"><g><path d="M 1.8125 0 L 1.296875 -0.765625 L 0.796875 0 L 0 0 L 0.890625 -1.25 L 0.03125 -2.484375 L 0.828125 -2.484375 L 1.3125 -1.765625 L 1.8125 -2.484375 L 2.5625 -2.484375 L 1.703125 -1.28125 L 2.625 0 Z M 1.8125 0 "/></g></g></g><g fill="#0a2635" fill-opacity="1"><g transform="translate(9.083947, 24.793515)"><g><path d="M 0.25 -2.484375 L 1.421875 -2.484375 C 1.691406 -2.484375 1.929688 -2.429688 2.140625 -2.328125 C 2.359375 -2.222656 2.523438 -2.078125 2.640625 -1.890625 C 2.753906 -1.710938 2.8125 -1.492188 2.8125 -1.234375 C 2.8125 -0.984375 2.753906 -0.765625 2.640625 -0.578125 C 2.523438 -0.398438 2.359375 -0.257812 2.140625 -0.15625 C 1.929688 -0.0507812 1.691406 0 1.421875 0 L 0.25 0 Z M 1.390625 -0.5625 C 1.609375 -0.5625 1.78125 -0.617188 1.90625 -0.734375 C 2.03125 -0.859375 2.09375 -1.023438 2.09375 -1.234375 C 2.09375 -1.453125 2.03125 -1.617188 1.90625 -1.734375 C 1.78125 -1.859375 1.609375 -1.921875 1.390625 -1.921875 L 0.953125 -1.921875 L 0.953125 -0.5625 Z M 1.390625 -0.5625 "/></g></g></g><g fill="#0a2635" fill-opacity="1"><g transform="translate(13.446868, 24.793515)"><g><path d="M 2.234375 -0.546875 L 2.234375 0 L 0.25 0 L 0.25 -2.484375 L 2.203125 -2.484375 L 2.203125 -1.9375 L 0.9375 -1.9375 L 0.9375 -1.515625 L 2.046875 -1.515625 L 2.046875 -1 L 0.9375 -1 L 0.9375 -0.546875 Z M 2.234375 -0.546875 "/></g></g></g><g fill="#0a2635" fill-opacity="1"><g transform="translate(17.264456, 24.793515)"><g><path d="M 0.25 -2.484375 L 0.953125 -2.484375 L 0.953125 -0.5625 L 2.140625 -0.5625 L 2.140625 0 L 0.25 0 Z M 0.25 -2.484375 "/></g></g></g><g fill="#0a2635" fill-opacity="1"><g transform="translate(20.862495, 24.793515)"><g><path d="M 0.25 -2.484375 L 0.953125 -2.484375 L 0.953125 0 L 0.25 0 Z M 0.25 -2.484375 "/></g></g></g><g fill="#0a2635" fill-opacity="1"><g transform="translate(23.50089, 24.793515)"><g><path d="M 2.765625 -2.484375 L 1.703125 0 L 1.015625 0 L -0.046875 -2.484375 L 0.703125 -2.484375 L 1.390625 -0.859375 L 2.078125 -2.484375 Z M 2.765625 -2.484375 "/></g></g></g><g fill="#0a2635" fill-opacity="1"><g transform="translate(27.651343, 24.793515)"><g><path d="M 2.234375 -0.546875 L 2.234375 0 L 0.25 0 L 0.25 -2.484375 L 2.203125 -2.484375 L 2.203125 -1.9375 L 0.9375 -1.9375 L 0.9375 -1.515625 L 2.046875 -1.515625 L 2.046875 -1 L 0.9375 -1 L 0.9375 -0.546875 Z M 2.234375 -0.546875 "/></g></g></g><g fill="#0a2635" fill-opacity="1"><g transform="translate(31.468931, 24.793515)"><g><path d="M 1.328125 -0.65625 L 0.953125 -0.65625 L 0.953125 0 L 0.25 0 L 0.25 -2.484375 L 1.390625 -2.484375 C 1.609375 -2.484375 1.800781 -2.445312 1.96875 -2.375 C 2.132812 -2.300781 2.257812 -2.191406 2.34375 -2.046875 C 2.4375 -1.910156 2.484375 -1.75 2.484375 -1.5625 C 2.484375 -1.382812 2.441406 -1.226562 2.359375 -1.09375 C 2.273438 -0.957031 2.15625 -0.851562 2 -0.78125 L 2.53125 0 L 1.78125 0 Z M 1.78125 -1.5625 C 1.78125 -1.675781 1.742188 -1.765625 1.671875 -1.828125 C 1.597656 -1.890625 1.488281 -1.921875 1.34375 -1.921875 L 0.953125 -1.921875 L 0.953125 -1.203125 L 1.34375 -1.203125 C 1.488281 -1.203125 1.597656 -1.234375 1.671875 -1.296875 C 1.742188 -1.359375 1.78125 -1.445312 1.78125 -1.5625 Z M 1.78125 -1.5625 "/></g></g></g><g fill="#0a2635" fill-opacity="1"><g transform="translate(35.527315, 24.793515)"><g><path d="M 1.578125 -0.890625 L 1.578125 0 L 0.875 0 L 0.875 -0.90625 L -0.078125 -2.484375 L 0.671875 -2.484375 L 1.265625 -1.5 L 1.84375 -2.484375 L 2.53125 -2.484375 Z M 1.578125 -0.890625 "/></g></g></g><g fill="#ec6b2c" fill-opacity="1"><g transform="translate(10.147879, 27.709504)"><g><path d="M 0.125 -1.265625 L 0.484375 -1.265625 L 0.484375 -0.28125 L 1.09375 -0.28125 L 1.09375 0 L 0.125 0 Z M 0.125 -1.265625 "/></g></g></g><g fill="#ec6b2c" fill-opacity="1"><g transform="translate(12.51839, 27.709504)"><g><path d="M 0.765625 0.03125 C 0.628906 0.03125 0.507812 0.00390625 0.40625 -0.046875 C 0.300781 -0.109375 0.21875 -0.191406 0.15625 -0.296875 C 0.09375 -0.398438 0.0625 -0.515625 0.0625 -0.640625 C 0.0625 -0.765625 0.09375 -0.875 0.15625 -0.96875 C 0.21875 -1.070312 0.300781 -1.148438 0.40625 -1.203125 C 0.507812 -1.265625 0.628906 -1.296875 0.765625 -1.296875 C 0.898438 -1.296875 1.019531 -1.265625 1.125 -1.203125 C 1.226562 -1.148438 1.3125 -1.070312 1.375 -0.96875 C 1.4375 -0.875 1.46875 -0.765625 1.46875 -0.640625 C 1.46875 -0.515625 1.4375 -0.398438 1.375 -0.296875 C 1.3125 -0.191406 1.226562 -0.109375 1.125 -0.046875 C 1.019531 0.00390625 0.898438 0.03125 0.765625 0.03125 Z M 0.765625 -0.265625 C 0.828125 -0.265625 0.882812 -0.28125 0.9375 -0.3125 C 0.988281 -0.34375 1.03125 -0.382812 1.0625 -0.4375 C 1.09375 -0.5 1.109375 -0.566406 1.109375 -0.640625 C 1.109375 -0.703125 1.09375 -0.757812 1.0625 -0.8125 C 1.03125 -0.875 0.988281 -0.921875 0.9375 -0.953125 C 0.882812 -0.984375 0.828125 -1 0.765625 -1 C 0.703125 -1 0.644531 -0.984375 0.59375 -0.953125 C 0.539062 -0.921875 0.5 -0.875 0.46875 -0.8125 C 0.4375 -0.757812 0.421875 -0.703125 0.421875 -0.640625 C 0.421875 -0.566406 0.4375 -0.5 0.46875 -0.4375 C 0.5 -0.382812 0.539062 -0.34375 0.59375 -0.3125 C 0.644531 -0.28125 0.703125 -0.265625 0.765625 -0.265625 Z M 0.765625 -0.265625 "/></g></g></g><g fill="#ec6b2c" fill-opacity="1"><g transform="translate(15.316766, 27.709504)"><g><path d="M 0.984375 -0.65625 L 1.296875 -0.65625 L 1.296875 -0.140625 C 1.222656 -0.0859375 1.140625 -0.046875 1.046875 -0.015625 C 0.953125 0.015625 0.859375 0.03125 0.765625 0.03125 C 0.628906 0.03125 0.507812 0.00390625 0.40625 -0.046875 C 0.300781 -0.109375 0.21875 -0.1875 0.15625 -0.28125 C 0.09375 -0.382812 0.0625 -0.503906 0.0625 -0.640625 C 0.0625 -0.765625 0.09375 -0.875 0.15625 -0.96875 C 0.21875 -1.070312 0.300781 -1.148438 0.40625 -1.203125 C 0.507812 -1.265625 0.628906 -1.296875 0.765625 -1.296875 C 0.890625 -1.296875 1 -1.273438 1.09375 -1.234375 C 1.1875 -1.191406 1.265625 -1.132812 1.328125 -1.0625 L 1.09375 -0.859375 C 1.007812 -0.953125 0.90625 -1 0.78125 -1 C 0.675781 -1 0.585938 -0.960938 0.515625 -0.890625 C 0.453125 -0.828125 0.421875 -0.742188 0.421875 -0.640625 C 0.421875 -0.566406 0.4375 -0.5 0.46875 -0.4375 C 0.5 -0.382812 0.539062 -0.34375 0.59375 -0.3125 C 0.644531 -0.28125 0.707031 -0.265625 0.78125 -0.265625 C 0.851562 -0.265625 0.921875 -0.28125 0.984375 -0.3125 Z M 0.984375 -0.65625 "/></g></g></g><g fill="#ec6b2c" fill-opacity="1"><g transform="translate(17.977355, 27.709504)"><g><path d="M 0.125 -1.265625 L 0.484375 -1.265625 L 0.484375 0 L 0.125 0 Z M 0.125 -1.265625 "/></g></g></g><g fill="#ec6b2c" fill-opacity="1"><g transform="translate(19.856548, 27.709504)"><g><path d="M 0.578125 0.03125 C 0.472656 0.03125 0.367188 0.0195312 0.265625 0 C 0.171875 -0.03125 0.09375 -0.0664062 0.03125 -0.109375 L 0.15625 -0.375 C 0.207031 -0.34375 0.269531 -0.3125 0.34375 -0.28125 C 0.425781 -0.257812 0.503906 -0.25 0.578125 -0.25 C 0.710938 -0.25 0.78125 -0.285156 0.78125 -0.359375 C 0.78125 -0.390625 0.757812 -0.414062 0.71875 -0.4375 C 0.675781 -0.457031 0.613281 -0.476562 0.53125 -0.5 C 0.4375 -0.519531 0.359375 -0.539062 0.296875 -0.5625 C 0.234375 -0.582031 0.175781 -0.617188 0.125 -0.671875 C 0.0820312 -0.722656 0.0625 -0.789062 0.0625 -0.875 C 0.0625 -0.957031 0.0820312 -1.03125 0.125 -1.09375 C 0.164062 -1.15625 0.226562 -1.203125 0.3125 -1.234375 C 0.394531 -1.273438 0.5 -1.296875 0.625 -1.296875 C 0.707031 -1.296875 0.785156 -1.285156 0.859375 -1.265625 C 0.941406 -1.242188 1.015625 -1.21875 1.078125 -1.1875 L 0.96875 -0.921875 C 0.851562 -0.984375 0.738281 -1.015625 0.625 -1.015625 C 0.550781 -1.015625 0.5 -1.003906 0.46875 -0.984375 C 0.4375 -0.960938 0.421875 -0.9375 0.421875 -0.90625 C 0.421875 -0.863281 0.4375 -0.832031 0.46875 -0.8125 C 0.507812 -0.800781 0.570312 -0.785156 0.65625 -0.765625 C 0.757812 -0.742188 0.84375 -0.722656 0.90625 -0.703125 C 0.96875 -0.679688 1.019531 -0.644531 1.0625 -0.59375 C 1.113281 -0.539062 1.140625 -0.472656 1.140625 -0.390625 C 1.140625 -0.304688 1.113281 -0.234375 1.0625 -0.171875 C 1.019531 -0.109375 0.957031 -0.0546875 0.875 -0.015625 C 0.789062 0.015625 0.691406 0.03125 0.578125 0.03125 Z M 0.578125 0.03125 "/></g></g></g><g fill="#ec6b2c" fill-opacity="1"><g transform="translate(22.29414, 27.709504)"><g><path d="M 0.390625 -0.984375 L 0 -0.984375 L 0 -1.265625 L 1.140625 -1.265625 L 1.140625 -0.984375 L 0.75 -0.984375 L 0.75 0 L 0.390625 0 Z M 0.390625 -0.984375 "/></g></g></g><g fill="#ec6b2c" fill-opacity="1"><g transform="translate(24.709976, 27.709504)"><g><path d="M 0.125 -1.265625 L 0.484375 -1.265625 L 0.484375 0 L 0.125 0 Z M 0.125 -1.265625 "/></g></g></g><g fill="#ec6b2c" fill-opacity="1"><g transform="translate(26.589169, 27.709504)"><g><path d="M 0.765625 0.03125 C 0.628906 0.03125 0.507812 0.00390625 0.40625 -0.046875 C 0.300781 -0.109375 0.21875 -0.1875 0.15625 -0.28125 C 0.09375 -0.382812 0.0625 -0.503906 0.0625 -0.640625 C 0.0625 -0.765625 0.09375 -0.875 0.15625 -0.96875 C 0.21875 -1.070312 0.300781 -1.148438 0.40625 -1.203125 C 0.507812 -1.265625 0.628906 -1.296875 0.765625 -1.296875 C 0.878906 -1.296875 0.984375 -1.273438 1.078125 -1.234375 C 1.171875 -1.191406 1.25 -1.132812 1.3125 -1.0625 L 1.078125 -0.84375 C 0.992188 -0.945312 0.894531 -1 0.78125 -1 C 0.707031 -1 0.644531 -0.984375 0.59375 -0.953125 C 0.539062 -0.921875 0.5 -0.875 0.46875 -0.8125 C 0.4375 -0.757812 0.421875 -0.703125 0.421875 -0.640625 C 0.421875 -0.566406 0.4375 -0.5 0.46875 -0.4375 C 0.5 -0.382812 0.539062 -0.34375 0.59375 -0.3125 C 0.644531 -0.28125 0.707031 -0.265625 0.78125 -0.265625 C 0.894531 -0.265625 0.992188 -0.316406 1.078125 -0.421875 L 1.3125 -0.21875 C 1.25 -0.132812 1.171875 -0.0703125 1.078125 -0.03125 C 0.984375 0.0078125 0.878906 0.03125 0.765625 0.03125 Z M 0.765625 0.03125 "/></g></g></g><g fill="#ec6b2c" fill-opacity="1"><g transform="translate(29.191743, 27.709504)"><g><path d="M 0.578125 0.03125 C 0.472656 0.03125 0.367188 0.0195312 0.265625 0 C 0.171875 -0.03125 0.09375 -0.0664062 0.03125 -0.109375 L 0.15625 -0.375 C 0.207031 -0.34375 0.269531 -0.3125 0.34375 -0.28125 C 0.425781 -0.257812 0.503906 -0.25 0.578125 -0.25 C 0.710938 -0.25 0.78125 -0.285156 0.78125 -0.359375 C 0.78125 -0.390625 0.757812 -0.414062 0.71875 -0.4375 C 0.675781 -0.457031 0.613281 -0.476562 0.53125 -0.5 C 0.4375 -0.519531 0.359375 -0.539062 0.296875 -0.5625 C 0.234375 -0.582031 0.175781 -0.617188 0.125 -0.671875 C 0.0820312 -0.722656 0.0625 -0.789062 0.0625 -0.875 C 0.0625 -0.957031 0.0820312 -1.03125 0.125 -1.09375 C 0.164062 -1.15625 0.226562 -1.203125 0.3125 -1.234375 C 0.394531 -1.273438 0.5 -1.296875 0.625 -1.296875 C 0.707031 -1.296875 0.785156 -1.285156 0.859375 -1.265625 C 0.941406 -1.242188 1.015625 -1.21875 1.078125 -1.1875 L 0.96875 -0.921875 C 0.851562 -0.984375 0.738281 -1.015625 0.625 -1.015625 C 0.550781 -1.015625 0.5 -1.003906 0.46875 -0.984375 C 0.4375 -0.960938 0.421875 -0.9375 0.421875 -0.90625 C 0.421875 -0.863281 0.4375 -0.832031 0.46875 -0.8125 C 0.507812 -0.800781 0.570312 -0.785156 0.65625 -0.765625 C 0.757812 -0.742188 0.84375 -0.722656 0.90625 -0.703125 C 0.96875 -0.679688 1.019531 -0.644531 1.0625 -0.59375 C 1.113281 -0.539062 1.140625 -0.472656 1.140625 -0.390625 C 1.140625 -0.304688 1.113281 -0.234375 1.0625 -0.171875 C 1.019531 -0.109375 0.957031 -0.0546875 0.875 -0.015625 C 0.789062 0.015625 0.691406 0.03125 0.578125 0.03125 Z M 0.578125 0.03125 "/></g></g></g></svg>